<?xml version="1.0" standalone="no"?>
<!DOCTYPE svg PUBLIC "-//W3C//DTD SVG 20010904//EN"
 "http://www.w3.org/TR/2001/REC-SVG-20010904/DTD/svg10.dtd">
<svg version="1.0" xmlns="http://www.w3.org/2000/svg"
 width="1000.000000pt" height="1000.000000pt" viewBox="0 0 1000.000000 1000.000000"
 preserveAspectRatio="xMidYMid meet">

<g transform="translate(0.000000,1000.000000) scale(0.100000,-0.100000)"
fill="#000000" stroke="none">
<path d="M7645 7443 c-129 -11 -282 -63 -409 -137 -84 -50 -232 -188 -283
-264 -21 -32 -468 -785 -993 -1674 -733 -1244 -957 -1615 -966 -1605 -6 6
-427 716 -934 1577 -508 861 -939 1590 -958 1620 -45 71 -161 190 -238 246
-74 53 -225 125 -310 148 -34 9 -103 20 -155 25 -484 46 -919 -273 -1026 -753
-10 -44 -16 -119 -16 -196 0 -144 22 -254 77 -379 29 -67 2162 -3691 2187
-3715 5 -6 9 11 9 46 0 148 60 368 150 545 199 395 572 666 1020 739 126 21
378 14 500 -15 397 -92 712 -325 914 -676 86 -150 145 -341 173 -564 l8 -64
1099 1862 c662 1122 1110 1891 1127 1936 138 355 54 751 -215 1021 -154 153
-345 247 -561 273 -88 11 -118 11 -200 4z"/>
</g>
</svg>
